<?xml version="1.0" encoding="UTF-8" standalone="no"?>
<!-- Created with Inkscape (http://www.inkscape.org/) -->

<svg
   xmlns:dc="http://purl.org/dc/elements/1.1/"
   xmlns:cc="http://creativecommons.org/ns#"
   xmlns:rdf="http://www.w3.org/1999/02/22-rdf-syntax-ns#"
   xmlns:svg="http://www.w3.org/2000/svg"
   xmlns="http://www.w3.org/2000/svg"
   xmlns:sodipodi="http://sodipodi.sourceforge.net/DTD/sodipodi-0.dtd"
   xmlns:inkscape="http://www.inkscape.org/namespaces/inkscape"
   width="512"
   height="512"
   viewBox="0 0 135.46666 135.46667"
   version="1.1"
   id="svg4620"
   inkscape:version="0.92.4 (f8dce91, 2019-08-02)"
   sodipodi:docname="icon.svg.2020_03_28_03_53_49.0.svg"
   inkscape:export-filename="/home/quan/Documents/Dinosaurs/arts/icon.png"
   inkscape:export-xdpi="96"
   inkscape:export-ydpi="96">
  <defs
     id="defs4614">
    <clipPath
       clipPathUnits="userSpaceOnUse"
       id="clipPath7704">
      <path
         inkscape:connector-curvature="0"
         id="path7706"
         d="M 4.2333336,280.06665 H 12.7 c 2.345266,0 4.233333,1.88807 4.233333,4.23333 v 8.46667 c 0,2.34527 -1.888067,4.23333 -4.233333,4.23333 H 4.2333336 C 1.8880667,296.99998 7.1666666e-7,295.11192 7.1666666e-7,292.76665 v -8.46667 c 0,-2.34526 1.88806598333334,-4.23333 4.23333288333334,-4.23333 z"
         style="opacity:1;fill:#1e7cdb;fill-opacity:1;fill-rule:nonzero;stroke:none;stroke-width:1.05799997;stroke-linecap:round;stroke-linejoin:round;stroke-miterlimit:4;stroke-dasharray:none;stroke-opacity:1" />
    </clipPath>
    <filter
       inkscape:collect="always"
       style="color-interpolation-filters:sRGB"
       id="filter16494"
       x="-0.15775421"
       width="1.3155084"
       y="-0.17163035"
       height="1.3432606">
      <feGaussianBlur
         inkscape:collect="always"
         stdDeviation="0.73164784"
         id="feGaussianBlur16496" />
    </filter>
  </defs>
  <sodipodi:namedview
     id="base"
     pagecolor="#ffffff"
     bordercolor="#666666"
     borderopacity="1.0"
     inkscape:pageopacity="0"
     inkscape:pageshadow="2"
     inkscape:zoom="3.6819662"
     inkscape:cx="1.4349862"
     inkscape:cy="65.814707"
     inkscape:document-units="mm"
     inkscape:current-layer="layer1"
     showgrid="false"
     units="px"
     inkscape:window-width="1850"
     inkscape:window-height="1016"
     inkscape:window-x="70"
     inkscape:window-y="27"
     inkscape:window-maximized="1"
     showguides="false" />
  <metadata
     id="metadata4617">
    <rdf:RDF>
      <cc:Work
         rdf:about="">
        <dc:format>image/svg+xml</dc:format>
        <dc:type
           rdf:resource="http://purl.org/dc/dcmitype/StillImage" />
        <dc:title></dc:title>
      </cc:Work>
    </rdf:RDF>
  </metadata>
  <g
     inkscape:label="Layer 1"
     inkscape:groupmode="layer"
     id="layer1"
     transform="translate(0,-161.53332)">
    <rect
       style="opacity:1;fill:#01bcff;fill-opacity:1;fill-rule:nonzero;stroke:none;stroke-width:0.146;stroke-linecap:round;stroke-linejoin:round;stroke-miterlimit:4;stroke-dasharray:none;stroke-opacity:1"
       id="rect6359"
       width="16.933332"
       height="16.933332"
       x="4.4504802e-07"
       y="280.07251"
       clip-path="url(#clipPath7704)"
       transform="matrix(8.0000005,0,0,8.0000016,-5.016667e-6,-2079.0003)" />
    <path
       sodipodi:nodetypes="cssssssssscssssc"
       inkscape:connector-curvature="0"
       id="path16320"
       d="m 13.883041,285.4065 c -0.562233,0.72289 -1.325275,-0.0402 -1.767042,0.76304 -0.441758,0.8032 -0.281117,3.79514 -1.004,4.79914 -0.722883,1.00401 -0.19266,2.46802 -0.479487,2.86557 -0.202817,0.28111 -0.8741141,0.25426 -1.1073363,-0.0443 -0.328599,-0.42068 0.2186767,-1.87454 -0.1829491,-2.31631 -0.4016084,-0.44176 -0.6850862,-0.64256 -1.2473281,-0.2008 -0.5622416,0.44177 -0.02387,2.30707 -0.3212832,2.65058 -0.2289889,0.26447 -0.8328058,0.25027 -1.0427329,0.0472 -0.3523661,-0.34081 0.2068447,-1.92987 0.020092,-2.53009 -0.4398693,-1.4139 -0.9444194,1.78183 -3.8304234,2.18957 2.3166957,-1.91972 1.9670345,-3.50246 3.8705818,-4.94054 1.496598,-1.13064 2.7256972,-0.56621 3.4373582,-1.49597 1.030188,-1.3459 0.705677,-3.24529 2.001277,-3.29956 1.295592,-0.0543 2.215532,0.78957 1.65329,1.51245 z"
       style="fill:#017dff;fill-opacity:1;stroke:#017dff;stroke-width:1.5;stroke-linecap:butt;stroke-linejoin:round;stroke-miterlimit:4;stroke-dasharray:none;stroke-opacity:1;filter:url(#filter16494)"
       transform="matrix(8.0000005,0,0,8.0000016,-5.016667e-6,-2079.0003)" />
    <path
       style="fill:#1bc069;fill-opacity:1;stroke:#117b43;stroke-width:10.58333397;stroke-linecap:butt;stroke-linejoin:round;stroke-miterlimit:4;stroke-dasharray:none;stroke-opacity:1"
       d="m 111.06433,200.01876 c -4.49786,5.78312 -10.6022,-0.3216 -14.136337,6.10432 -3.534064,6.4256 -2.248936,30.36113 -8.032001,38.39313 -5.783064,8.03208 -1.54128,19.74416 -3.835896,22.92456 -1.622536,2.24888 -6.99291,2.03408 -8.858694,-0.3544 -2.628792,-3.36544 1.749416,-14.99632 -1.463592,-18.53048 -3.212864,-3.53408 -5.480688,-5.14048 -9.978625,-1.6064 -4.497928,3.53416 -0.19096,18.45656 -2.570264,21.20464 -1.831912,2.11576 -6.662448,2.00216 -8.341864,0.3776 -2.818928,-2.72648 1.65476,-15.43896 0.16072,-20.24072 -3.518952,-11.3112 -7.555353,14.25464 -30.643389,17.51656 18.533564,-15.35776 15.736276,-28.01968 30.964653,-39.52432 11.972784,-9.04513 21.805585,-4.52968 27.498871,-11.96777 8.241505,-10.7672 5.645416,-25.96232 16.010217,-26.39648 10.364741,-0.4344 17.724261,6.31656 13.226321,12.0996 z"
       id="path5709"
       inkscape:connector-curvature="0"
       sodipodi:nodetypes="cssssssssscssssc" />
    <path
       sodipodi:nodetypes="cssssssssscssssc"
       inkscape:connector-curvature="0"
       id="path10920"
       d="m 111.06433,200.01876 c -4.49786,5.78312 -10.6022,-0.3216 -14.136337,6.10432 -3.534064,6.4256 -2.248936,30.36113 -8.032001,38.39313 -5.783064,8.03208 -1.54128,19.74416 -3.835896,22.92456 -1.622536,2.24888 -6.99291,2.03408 -8.858694,-0.3544 -2.628792,-3.36544 1.749416,-14.99632 -1.463592,-18.53048 -3.212864,-3.53408 -5.480688,-5.14048 -9.978625,-1.6064 -4.497928,3.53416 -0.19096,18.45656 -2.570264,21.20464 -1.831912,2.11576 -6.662448,2.00216 -8.341864,0.3776 -2.818928,-2.72648 1.65476,-15.43896 0.16072,-20.24072 -3.518952,-11.3112 -7.555353,14.25464 -30.643389,17.51656 18.533564,-15.35776 15.736276,-28.01968 30.964653,-39.52432 11.972784,-9.04513 21.805585,-4.52968 27.498871,-11.96777 8.241505,-10.7672 5.645416,-25.96232 16.010217,-26.39648 10.364741,-0.4344 17.724261,6.31656 13.226321,12.0996 z"
       style="fill:#1bc069;fill-opacity:1;stroke:none;stroke-width:3.43453383;stroke-linecap:butt;stroke-linejoin:round;stroke-miterlimit:4;stroke-dasharray:none;stroke-opacity:1" />
  </g>
</svg>
