<?xml version="1.0" encoding="UTF-8" standalone="no"?>
<!-- Created with Inkscape (http://www.inkscape.org/) -->

<svg
   xmlns:dc="http://purl.org/dc/elements/1.1/"
   xmlns:cc="http://creativecommons.org/ns#"
   xmlns:rdf="http://www.w3.org/1999/02/22-rdf-syntax-ns#"
   xmlns:svg="http://www.w3.org/2000/svg"
   xmlns="http://www.w3.org/2000/svg"
   xmlns:xlink="http://www.w3.org/1999/xlink"
   xmlns:sodipodi="http://sodipodi.sourceforge.net/DTD/sodipodi-0.dtd"
   xmlns:inkscape="http://www.inkscape.org/namespaces/inkscape"
   width="64"
   height="64"
   viewBox="0 0 16.933333 16.933334"
   version="1.1"
   id="svg4620"
   inkscape:version="0.92.4 (f8dce91, 2019-08-02)"
   sodipodi:docname="icon.svg"
   inkscape:export-filename="/home/quan/Documents/Dinosaurs/arts/icon.png"
   inkscape:export-xdpi="96"
   inkscape:export-ydpi="96">
  <defs
     id="defs4614">
    <linearGradient
       inkscape:collect="always"
       id="linearGradient7720">
      <stop
         style="stop-color:#000000;stop-opacity:1;"
         offset="0"
         id="stop7716" />
      <stop
         style="stop-color:#000000;stop-opacity:0;"
         offset="1"
         id="stop7718" />
    </linearGradient>
    <linearGradient
       inkscape:collect="always"
       id="linearGradient7712">
      <stop
         style="stop-color:#0067ce;stop-opacity:1;"
         offset="0"
         id="stop7708" />
      <stop
         style="stop-color:#0093fa;stop-opacity:1"
         offset="1"
         id="stop7710" />
    </linearGradient>
    <linearGradient
       inkscape:collect="always"
       xlink:href="#linearGradient6965"
       id="linearGradient6967"
       x1="592.22101"
       y1="-58.662083"
       x2="57.81842"
       y2="386.16257"
       gradientUnits="userSpaceOnUse"
       gradientTransform="matrix(0.02539683,0,0,0.05925926,8.7294547e-7,279.40585)" />
    <linearGradient
       inkscape:collect="always"
       id="linearGradient6965">
      <stop
         style="stop-color:#01deff;stop-opacity:1"
         offset="0"
         id="stop6961" />
      <stop
         style="stop-color:#0179ff;stop-opacity:1"
         offset="1"
         id="stop6963" />
    </linearGradient>
    <clipPath
       clipPathUnits="userSpaceOnUse"
       id="clipPath7704">
      <path
         inkscape:connector-curvature="0"
         id="path7706"
         d="M 4.2333336,280.06665 H 12.7 c 2.345266,0 4.233333,1.88807 4.233333,4.23333 v 8.46667 c 0,2.34527 -1.888067,4.23333 -4.233333,4.23333 H 4.2333336 C 1.8880667,296.99998 7.1666666e-7,295.11192 7.1666666e-7,292.76665 v -8.46667 c 0,-2.34526 1.88806598333334,-4.23333 4.23333288333334,-4.23333 z"
         style="opacity:1;fill:#1e7cdb;fill-opacity:1;fill-rule:nonzero;stroke:none;stroke-width:1.05799997;stroke-linecap:round;stroke-linejoin:round;stroke-miterlimit:4;stroke-dasharray:none;stroke-opacity:1" />
    </clipPath>
    <linearGradient
       inkscape:collect="always"
       xlink:href="#linearGradient7712"
       id="linearGradient7714"
       x1="4.4504802e-07"
       y1="297.00583"
       x2="16.933332"
       y2="280.07251"
       gradientUnits="userSpaceOnUse" />
    <linearGradient
       inkscape:collect="always"
       xlink:href="#linearGradient7720"
       id="linearGradient7722"
       x1="35.096058"
       y1="276.26505"
       x2="34.932674"
       y2="276.57547"
       gradientUnits="userSpaceOnUse" />
  </defs>
  <sodipodi:namedview
     id="base"
     pagecolor="#ffffff"
     bordercolor="#666666"
     borderopacity="1.0"
     inkscape:pageopacity="0"
     inkscape:pageshadow="2"
     inkscape:zoom="3.6819662"
     inkscape:cx="53.852632"
     inkscape:cy="66.357895"
     inkscape:document-units="mm"
     inkscape:current-layer="layer1"
     showgrid="false"
     units="px"
     inkscape:window-width="1850"
     inkscape:window-height="1016"
     inkscape:window-x="70"
     inkscape:window-y="27"
     inkscape:window-maximized="1"
     showguides="false" />
  <metadata
     id="metadata4617">
    <rdf:RDF>
      <cc:Work
         rdf:about="">
        <dc:format>image/svg+xml</dc:format>
        <dc:type
           rdf:resource="http://purl.org/dc/dcmitype/StillImage" />
        <dc:title />
      </cc:Work>
    </rdf:RDF>
  </metadata>
  <g
     inkscape:label="Layer 1"
     inkscape:groupmode="layer"
     id="layer1"
     transform="translate(0,-280.06665)">
    <rect
       style="opacity:1;fill:url(#linearGradient6967);fill-opacity:1;fill-rule:nonzero;stroke:#11247b;stroke-width:0.146;stroke-linecap:round;stroke-linejoin:round;stroke-miterlimit:4;stroke-dasharray:none;stroke-opacity:1"
       id="rect6359"
       width="16.933332"
       height="16.933332"
       x="4.4504802e-07"
       y="280.07251"
       clip-path="url(#clipPath7704)" />
    <path
       style="color:#000000;font-style:normal;font-variant:normal;font-weight:normal;font-stretch:normal;font-size:medium;line-height:normal;font-family:sans-serif;font-variant-ligatures:normal;font-variant-position:normal;font-variant-caps:normal;font-variant-numeric:normal;font-variant-alternates:normal;font-feature-settings:normal;text-indent:0;text-align:start;text-decoration:none;text-decoration-line:none;text-decoration-style:solid;text-decoration-color:#000000;letter-spacing:normal;word-spacing:normal;text-transform:none;writing-mode:lr-tb;direction:ltr;text-orientation:mixed;dominant-baseline:auto;baseline-shift:baseline;text-anchor:start;white-space:normal;shape-padding:0;clip-rule:nonzero;display:inline;overflow:visible;visibility:visible;opacity:1;isolation:auto;mix-blend-mode:normal;color-interpolation:sRGB;color-interpolation-filters:linearRGB;solid-color:#000000;solid-opacity:1;vector-effect:none;fill:url(#linearGradient7722);fill-opacity:1;fill-rule:nonzero;stroke:url(#linearGradient7714);stroke-width:1.05799997;stroke-linecap:round;stroke-linejoin:round;stroke-miterlimit:4;stroke-dasharray:none;stroke-dashoffset:0;stroke-opacity:1;color-rendering:auto;image-rendering:auto;shape-rendering:auto;text-rendering:auto;enable-background:accumulate"
       d="m 4.2322916,280.59582 h 8.4667974 c 2.06126,0 3.705078,1.64383 3.705078,3.70508 v 8.4668 c 0,2.06126 -1.643817,3.70312 -3.705078,3.70312 H 4.2322916 c -2.0612624,0 -3.70312498,-1.64186 -3.70312498,-3.70312 v -8.4668 c 0,-2.06125 1.64186408,-3.70508 3.70312498,-3.70508 z"
       id="rect5707"
       inkscape:connector-curvature="0"
       sodipodi:nodetypes="sssssssss" />
    <path
       style="fill:#1bc069;fill-opacity:1;stroke:#117b43;stroke-width:1.32291663;stroke-linecap:butt;stroke-linejoin:round;stroke-miterlimit:4;stroke-dasharray:none;stroke-opacity:1"
       d="m 13.883041,284.87733 c -0.562233,0.72289 -1.325275,-0.0402 -1.767042,0.76304 -0.441758,0.8032 -0.281117,3.79514 -1.004,4.79914 -0.722883,1.00401 -0.19266,2.46802 -0.479487,2.86557 -0.202817,0.28111 -0.8741141,0.25426 -1.1073363,-0.0443 -0.328599,-0.42068 0.2186767,-1.87454 -0.1829491,-2.31631 -0.4016084,-0.44176 -0.6850862,-0.64256 -1.2473281,-0.2008 -0.5622416,0.44177 -0.02387,2.30707 -0.3212832,2.65058 -0.2289889,0.26447 -0.8328058,0.25027 -1.0427329,0.0472 -0.3523661,-0.34081 0.2068447,-1.92987 0.020092,-2.53009 -0.4398693,-1.4139 -0.9444194,1.78183 -3.8304234,2.18957 2.3166957,-1.91972 1.9670345,-3.50246 3.8705818,-4.94054 1.496598,-1.13064 2.7256972,-0.56621 3.4373582,-1.49597 1.030188,-1.3459 0.705677,-3.24529 2.001277,-3.29956 1.295592,-0.0543 2.215532,0.78957 1.65329,1.51245 z"
       id="path5709"
       inkscape:connector-curvature="0"
       sodipodi:nodetypes="cssssssssscssssc" />
    <path
       sodipodi:nodetypes="cssssssssscssssc"
       inkscape:connector-curvature="0"
       id="path10920"
       d="m 13.883041,284.87733 c -0.562233,0.72289 -1.325275,-0.0402 -1.767042,0.76304 -0.441758,0.8032 -0.281117,3.79514 -1.004,4.79914 -0.722883,1.00401 -0.19266,2.46802 -0.479487,2.86557 -0.202817,0.28111 -0.8741141,0.25426 -1.1073363,-0.0443 -0.328599,-0.42068 0.2186767,-1.87454 -0.1829491,-2.31631 -0.4016084,-0.44176 -0.6850862,-0.64256 -1.2473281,-0.2008 -0.5622416,0.44177 -0.02387,2.30707 -0.3212832,2.65058 -0.2289889,0.26447 -0.8328058,0.25027 -1.0427329,0.0472 -0.3523661,-0.34081 0.2068447,-1.92987 0.020092,-2.53009 -0.4398693,-1.4139 -0.9444194,1.78183 -3.8304234,2.18957 2.3166957,-1.91972 1.9670345,-3.50246 3.8705818,-4.94054 1.496598,-1.13064 2.7256972,-0.56621 3.4373582,-1.49597 1.030188,-1.3459 0.705677,-3.24529 2.001277,-3.29956 1.295592,-0.0543 2.215532,0.78957 1.65329,1.51245 z"
       style="fill:#1bc069;fill-opacity:1;stroke:none;stroke-width:0.42931667;stroke-linecap:butt;stroke-linejoin:round;stroke-miterlimit:4;stroke-dasharray:none;stroke-opacity:1" />
  </g>
</svg>
