<?xml version="1.0" encoding="UTF-8" standalone="no"?>
<!-- Created with Inkscape (http://www.inkscape.org/) -->

<svg
   xmlns:dc="http://purl.org/dc/elements/1.1/"
   xmlns:cc="http://creativecommons.org/ns#"
   xmlns:rdf="http://www.w3.org/1999/02/22-rdf-syntax-ns#"
   xmlns:svg="http://www.w3.org/2000/svg"
   xmlns="http://www.w3.org/2000/svg"
   xmlns:sodipodi="http://sodipodi.sourceforge.net/DTD/sodipodi-0.dtd"
   xmlns:inkscape="http://www.inkscape.org/namespaces/inkscape"
   width="758"
   height="256"
   viewBox="0 0 200.55416 67.733335"
   version="1.1"
   id="svg5674"
   inkscape:version="0.92.4 (f8dce91, 2019-08-02)"
   sodipodi:docname="logo.svg"
   inkscape:export-filename="/home/quan/Documents/Dinosaurs/arts/logo.png"
   inkscape:export-xdpi="96"
   inkscape:export-ydpi="96">
  <defs
     id="defs5668" />
  <sodipodi:namedview
     id="base"
     pagecolor="#ffffff"
     bordercolor="#666666"
     borderopacity="1.0"
     inkscape:pageopacity="0.0"
     inkscape:pageshadow="2"
     inkscape:zoom="0.35"
     inkscape:cx="-171.42857"
     inkscape:cy="560"
     inkscape:document-units="mm"
     inkscape:current-layer="layer1"
     showgrid="false"
     units="px" />
  <metadata
     id="metadata5671">
    <rdf:RDF>
      <cc:Work
         rdf:about="">
        <dc:format>image/svg+xml</dc:format>
        <dc:type
           rdf:resource="http://purl.org/dc/dcmitype/StillImage" />
        <dc:title></dc:title>
      </cc:Work>
    </rdf:RDF>
  </metadata>
  <g
     inkscape:label="Layer 1"
     inkscape:groupmode="layer"
     id="layer1"
     transform="translate(0,-229.26665)">
    <g
       transform="translate(16.401324,-8.8473311)"
       style="stroke:#ffec73;stroke-width:5;stroke-miterlimit:4;stroke-dasharray:none;stroke-opacity:1"
       id="g2968">
      <g
         style="stroke:#ffec73;stroke-width:6.01428556;stroke-miterlimit:4;stroke-dasharray:none;stroke-opacity:1"
         transform="matrix(0.83453657,-0.02428605,0.02449345,0.82747061,-0.57775163,230.52299)"
         id="g2936">
        <path
           style="fill:#39f174;fill-opacity:1;stroke:#ffec73;stroke-width:6.01428556;stroke-linecap:butt;stroke-linejoin:miter;stroke-miterlimit:4;stroke-dasharray:none;stroke-opacity:1"
           d="m 192.51021,46.22447 c -1.18582,7.319041 -13.53357,-1.19318 -14.16157,3.545623 -0.66542,5.021196 15.18616,0.913893 14.29688,12.697978 -0.8513,11.280798 -23.1274,9.839477 -21.28244,2.780796 1.82747,-6.991772 13.05815,1.875968 14.05702,-3.025867 0.7832,-3.843443 -15.53281,-0.863403 -13.94729,-12.517128 1.5698,-11.538188 21.99931,-9.418433 21.0374,-3.481402 z"
           id="path2934"
           inkscape:connector-curvature="0"
           sodipodi:nodetypes="sssssss" />
      </g>
      <g
         style="stroke:#ffec73;stroke-width:4.49087381;stroke-miterlimit:4;stroke-dasharray:none;stroke-opacity:1"
         id="g2940"
         transform="matrix(1.1133691,0,0,1.1133691,80.614662,44.214541)">
        <path
           style="fill:#ffae46;fill-opacity:1;stroke:#ffec73;stroke-width:4.49087381;stroke-linecap:butt;stroke-linejoin:round;stroke-miterlimit:4;stroke-dasharray:none;stroke-opacity:1"
           d="m -60.149105,193.43417 c -0.272293,-0.002 -0.531823,0.008 -0.775392,0.0276 -7.986924,0.64133 -7.361883,20.26858 -2.429275,21.33948 5.477685,1.18923 13.510697,-0.59743 13.89956,-10.01248 0.364562,-8.82661 -6.610501,-11.33355 -10.694893,-11.35458 z m -0.444214,15.48764 c -0.540556,-1.8499 -0.08597,-5.28876 0.264307,-9.04167 7.102707,-1.80788 6.81445,12.64992 -0.264307,9.04167 z"
           id="path2938"
           inkscape:connector-curvature="0"
           sodipodi:nodetypes="ccssccccc" />
      </g>
      <g
         style="stroke:#ffec73;stroke-width:4.49087381;stroke-miterlimit:4;stroke-dasharray:none;stroke-opacity:1"
         id="g2944"
         transform="matrix(1.1133691,0,0,1.1133691,77.088014,43.81058)">
        <path
           style="fill:#ff5a9d;fill-opacity:1;stroke:#ffec73;stroke-width:4.49087381;stroke-linecap:butt;stroke-linejoin:miter;stroke-miterlimit:4;stroke-dasharray:none;stroke-opacity:1"
           d="m -40.531873,195.77802 c 3.854481,4.84249 1.657389,24.44777 -3.59968,19.14592 -4.51063,-4.54906 -1.51547,-25.57224 3.59968,-19.14592 z"
           id="path2942"
           inkscape:connector-curvature="0"
           sodipodi:nodetypes="sss" />
      </g>
      <g
         style="stroke:#ffec73;stroke-width:4.49087381;stroke-miterlimit:4;stroke-dasharray:none;stroke-opacity:1"
         id="g2948"
         transform="matrix(1.1133691,0,0,1.1133691,72.057612,43.81058)">
        <path
           sodipodi:nodetypes="csscssc"
           inkscape:connector-curvature="0"
           id="path2946"
           d="m -26.849497,206.66162 c 0.27148,3.49026 0.63169,9.87015 -3.82183,8.87763 -6.00109,-1.33742 -3.53756,-21.42608 2.22091,-21.63436 4.26154,-0.15414 4.83827,4.82892 5.55138,8.80629 0.16981,-2.78557 -0.772,-8.7079 3.601938,-8.83095 6.94019,-0.19524 4.23375,21.68908 -0.957228,21.66198 -5.09371,-0.0266 -5.34192,-4.16916 -6.59517,-8.88059 z"
           style="fill:#5ad9ff;fill-opacity:1;stroke:#ffec73;stroke-width:4.49087381;stroke-linecap:butt;stroke-linejoin:round;stroke-miterlimit:4;stroke-dasharray:none;stroke-opacity:1" />
      </g>
      <g
         style="stroke:#ffec73;stroke-width:4.17286921;stroke-miterlimit:4;stroke-dasharray:none;stroke-opacity:1"
         id="g2952"
         transform="matrix(1.1989663,0,0,1.1974667,-290.89951,-8.8608869)">
        <path
           sodipodi:nodetypes="cccsccccc"
           inkscape:connector-curvature="0"
           id="path2950"
           d="m 296.09671,223.92328 c -8.78886,0.26523 -9.11689,14.12188 -6.36757,18.62677 2.03428,3.33325 9.93437,3.43396 12.73823,-0.44183 2.39421,-3.30954 2.03758,-10.22179 -0.63148,-14.6818 -1.99473,-3.33321 -4.35054,-3.52844 -5.73918,-3.50314 z m -0.4775,6.07405 c 3.58391,0.0847 4.4928,8.62827 1.42524,10.09861 -3.84389,1.87793 -4.83973,-8.26462 -2.86443,-9.71827 0.51842,-0.27351 0.99907,-0.39075 1.43919,-0.38034 z"
           style="fill:#5ad9ff;fill-opacity:1;stroke:#ffec73;stroke-width:4.17286921;stroke-linecap:butt;stroke-linejoin:round;stroke-miterlimit:4;stroke-dasharray:none;stroke-opacity:1" />
      </g>
      <g
         transform="matrix(0.86591273,-0.01724161,0.01739789,0.85813439,-0.39016907,227.26826)"
         id="g2956"
         style="stroke:#ffec73;stroke-width:5.79919434;stroke-miterlimit:4;stroke-dasharray:none;stroke-opacity:1">
        <path
           style="fill:#945dff;fill-opacity:1;stroke:#ffec73;stroke-width:5.79919434;stroke-linecap:butt;stroke-linejoin:round;stroke-miterlimit:4;stroke-dasharray:none;stroke-opacity:1"
           d="m 154.92221,41.380912 c -2.87491,-0.02211 -5.7385,0.634634 -7.41507,2.117212 -3.5767,3.162835 -5.58144,25.122743 -0.31043,26.202632 5.27093,1.079887 5.00817,-4.935165 5.21623,-9.993229 0.61581,0.18352 1.23254,0.335499 1.84593,0.460062 0.10964,0.471301 0.26199,0.972406 0.47541,1.512298 0.98536,2.492621 5.00493,10.14041 9.57868,7.682816 4.28558,-2.302763 -0.485,-5.534762 -2.60213,-9.523059 0.92349,-0.354554 1.76717,-0.850381 2.49884,-1.508272 2.83976,-2.553381 2.7188,-11.549076 -0.2485,-14.474451 -1.57637,-1.554107 -5.78072,-2.450947 -9.03896,-2.476009 z m 1.24594,5.8433 h 7.1e-4 c 3.62224,-0.01902 3.95602,2.459371 3.78013,4.593252 -0.21649,2.626496 -3.30984,4.241578 -7.35715,2.626202 0.11234,-1.698181 0.50204,-5.596291 0.007,-6.937787 h 7.1e-4 c 1.17958,-0.187651 2.73246,-0.277195 3.56867,-0.281667 z"
           id="path2954"
           inkscape:connector-curvature="0"
           sodipodi:nodetypes="scccccccscscccccccc" />
      </g>
      <g
         id="g2960"
         transform="matrix(0.83453657,-0.02428605,0.02449345,0.82747061,-71.538662,230.12648)"
         style="stroke:#ffec73;stroke-width:6.01428556;stroke-miterlimit:4;stroke-dasharray:none;stroke-opacity:1">
        <path
           sodipodi:nodetypes="sssssss"
           inkscape:connector-curvature="0"
           id="path2958"
           d="m 192.51021,46.22447 c -1.18582,7.319041 -13.53357,-1.19318 -14.16157,3.545623 -0.66542,5.021196 15.18616,0.913893 14.29688,12.697978 -0.8513,11.280798 -23.1274,9.839477 -21.28244,2.780796 1.82747,-6.991772 13.05815,1.875968 14.05702,-3.025867 0.7832,-3.843443 -15.53281,-0.863403 -13.94729,-12.517128 1.5698,-11.538188 21.99931,-9.418433 21.0374,-3.481402 z"
           style="fill:#ff5a9d;fill-opacity:1;stroke:#ffec73;stroke-width:6.01428556;stroke-linecap:butt;stroke-linejoin:miter;stroke-miterlimit:4;stroke-dasharray:none;stroke-opacity:1" />
      </g>
      <g
         id="g2964"
         transform="matrix(1.1245562,0.0033485,-0.00341385,1.1271604,-6.5637192,294.1158)"
         style="stroke:#ffec73;stroke-width:4.44103909;stroke-miterlimit:4;stroke-dasharray:none;stroke-opacity:1">
        <path
           sodipodi:nodetypes="ssccssscccc"
           inkscape:connector-curvature="0"
           id="path2962"
           d="m 90.696182,-28.675411 c -2.937732,3.987531 -8.719105,14.202402 -5.472345,18.7597817 1.954858,2.743991 4.724784,-0.8931437 5.827613,-3.9479847 1.37191,0.61441 2.572872,0.392815 3.813623,-0.278115 1.188191,3.506949 2.702324,6.4454397 4.847284,4.8684387 4.250233,-3.1248367 0.296523,-14.3882107 -2.18023,-18.7208317 -1.38208,-2.417688 -5.121736,-3.00809 -6.835945,-0.681289 z m 2.829057,6.284075 c 0.0609,1.541129 0.278737,3.195106 0.793846,4.465486 -1.013949,-0.522391 -1.275159,-0.218127 -2.30414,0.155443 0.551762,-1.210597 1.025284,-2.886208 1.510294,-4.620929 z"
           style="fill:#ffae46;fill-opacity:1;stroke:#ffec73;stroke-width:4.44103909;stroke-linecap:butt;stroke-linejoin:round;stroke-miterlimit:4;stroke-dasharray:none;stroke-opacity:1" />
      </g>
      <path
         sodipodi:nodetypes="csssssc"
         inkscape:connector-curvature="0"
         id="path2966"
         d="m 111.07168,260.61823 c -5.5919,0.18041 -6.38535,15.19065 -1.70914,21.30955 2.65701,3.47676 10.21758,3.08498 12.9498,0.0991 5.59373,-6.113 3.98684,-21.43305 -0.50572,-21.53274 -7.99847,-0.17746 1.71356,16.22691 -6.1962,16.16491 -6.03644,-0.0472 1.51669,-16.2362 -4.53874,-16.04081 z"
         style="fill:#39f174;fill-opacity:1;stroke:#ffec73;stroke-width:5;stroke-linecap:butt;stroke-linejoin:miter;stroke-miterlimit:4;stroke-dasharray:none;stroke-opacity:1" />
    </g>
    <g
       transform="translate(16.401324,-8.8473311)"
       id="g3575"
       style="stroke:#fffef7;stroke-opacity:1">
      <g
         id="g1008"
         transform="matrix(0.83453657,-0.02428605,0.02449345,0.82747061,-0.57775163,230.52299)"
         style="stroke:#fffef7;stroke-width:1.3392241;stroke-opacity:1">
        <path
           sodipodi:nodetypes="sssssss"
           inkscape:connector-curvature="0"
           id="path1002"
           d="m 192.51021,46.22447 c -1.18582,7.319041 -13.53357,-1.19318 -14.16157,3.545623 -0.66542,5.021196 15.18616,0.913893 14.29688,12.697978 -0.8513,11.280798 -23.1274,9.839477 -21.28244,2.780796 1.82747,-6.991772 13.05815,1.875968 14.05702,-3.025867 0.7832,-3.843443 -15.53281,-0.863403 -13.94729,-12.517128 1.5698,-11.538188 21.99931,-9.418433 21.0374,-3.481402 z"
           style="fill:#39f174;fill-opacity:1;stroke:#fffef7;stroke-width:1.60706902;stroke-linecap:butt;stroke-linejoin:miter;stroke-miterlimit:4;stroke-dasharray:none;stroke-opacity:1" />
      </g>
      <g
         transform="matrix(1.1133691,0,0,1.1133691,80.614662,44.214541)"
         id="g1014"
         style="stroke:#fffef7;stroke-opacity:1">
        <path
           sodipodi:nodetypes="ccssccccc"
           inkscape:connector-curvature="0"
           id="path1010"
           d="m -60.149105,193.43417 c -0.272293,-0.002 -0.531823,0.008 -0.775392,0.0276 -7.986924,0.64133 -7.361883,20.26858 -2.429275,21.33948 5.477685,1.18923 13.510697,-0.59743 13.89956,-10.01248 0.364562,-8.82661 -6.610501,-11.33355 -10.694893,-11.35458 z m -0.444214,15.48764 c -0.540556,-1.8499 -0.08597,-5.28876 0.264307,-9.04167 7.102707,-1.80788 6.81445,12.64992 -0.264307,9.04167 z"
           style="fill:#ffae46;fill-opacity:1;stroke:#fffef7;stroke-width:1.20000005;stroke-linecap:butt;stroke-linejoin:round;stroke-miterlimit:4;stroke-dasharray:none;stroke-opacity:1" />
      </g>
      <g
         transform="matrix(1.1133691,0,0,1.1133691,77.088014,43.81058)"
         id="g1020"
         style="stroke:#fffef7;stroke-opacity:1">
        <path
           sodipodi:nodetypes="sss"
           inkscape:connector-curvature="0"
           id="path1016"
           d="m -40.531873,195.77802 c 3.854481,4.84249 1.657389,24.44777 -3.59968,19.14592 -4.51063,-4.54906 -1.51547,-25.57224 3.59968,-19.14592 z"
           style="fill:#ff5a9d;fill-opacity:1;stroke:#fffef7;stroke-width:1.20000005;stroke-linecap:butt;stroke-linejoin:miter;stroke-miterlimit:4;stroke-dasharray:none;stroke-opacity:1" />
      </g>
      <g
         transform="matrix(1.1133691,0,0,1.1133691,72.057612,43.81058)"
         id="g1026"
         style="stroke:#fffef7;stroke-opacity:1">
        <path
           style="fill:#5ad9ff;fill-opacity:1;stroke:#fffef7;stroke-width:1.20000005;stroke-linecap:butt;stroke-linejoin:round;stroke-miterlimit:4;stroke-dasharray:none;stroke-opacity:1"
           d="m -26.849497,206.66162 c 0.27148,3.49026 0.63169,9.87015 -3.82183,8.87763 -6.00109,-1.33742 -3.53756,-21.42608 2.22091,-21.63436 4.26154,-0.15414 4.83827,4.82892 5.55138,8.80629 0.16981,-2.78557 -0.772,-8.7079 3.601938,-8.83095 6.94019,-0.19524 4.23375,21.68908 -0.957228,21.66198 -5.09371,-0.0266 -5.34192,-4.16916 -6.59517,-8.88059 z"
           id="path1022"
           inkscape:connector-curvature="0"
           sodipodi:nodetypes="csscssc" />
      </g>
      <g
         transform="matrix(1.1989663,0,0,1.1974667,-290.89951,-8.8608869)"
         id="g1032"
         style="stroke:#fffef7;stroke-width:0.92918885;stroke-opacity:1">
        <path
           style="fill:#5ad9ff;fill-opacity:1;stroke:#fffef7;stroke-width:1.11502659;stroke-linecap:butt;stroke-linejoin:round;stroke-miterlimit:4;stroke-dasharray:none;stroke-opacity:1"
           d="m 296.09671,223.92328 c -8.78886,0.26523 -9.11689,14.12188 -6.36757,18.62677 2.03428,3.33325 9.93437,3.43396 12.73823,-0.44183 2.39421,-3.30954 2.03758,-10.22179 -0.63148,-14.6818 -1.99473,-3.33321 -4.35054,-3.52844 -5.73918,-3.50314 z m -0.4775,6.07405 c 3.58391,0.0847 4.4928,8.62827 1.42524,10.09861 -3.84389,1.87793 -4.83973,-8.26462 -2.86443,-9.71827 0.51842,-0.27351 0.99907,-0.39075 1.43919,-0.38034 z"
           id="path1028"
           inkscape:connector-curvature="0"
           sodipodi:nodetypes="cccsccccc" />
      </g>
      <g
         style="stroke:#fffef7;stroke-width:1.29132879;stroke-opacity:1"
         id="g1060"
         transform="matrix(0.86591273,-0.01724161,0.01739789,0.85813439,-0.39016907,227.26826)">
        <path
           sodipodi:nodetypes="scccccccscscccccccc"
           inkscape:connector-curvature="0"
           id="path1056"
           d="m 154.92221,41.380912 c -2.87491,-0.02211 -5.7385,0.634634 -7.41507,2.117212 -3.5767,3.162835 -5.58144,25.122743 -0.31043,26.202632 5.27093,1.079887 5.00817,-4.935165 5.21623,-9.993229 0.61581,0.18352 1.23254,0.335499 1.84593,0.460062 0.10964,0.471301 0.26199,0.972406 0.47541,1.512298 0.98536,2.492621 5.00493,10.14041 9.57868,7.682816 4.28558,-2.302763 -0.485,-5.534762 -2.60213,-9.523059 0.92349,-0.354554 1.76717,-0.850381 2.49884,-1.508272 2.83976,-2.553381 2.7188,-11.549076 -0.2485,-14.474451 -1.57637,-1.554107 -5.78072,-2.450947 -9.03896,-2.476009 z m 1.24594,5.8433 h 7.1e-4 c 3.62224,-0.01902 3.95602,2.459371 3.78013,4.593252 -0.21649,2.626496 -3.30984,4.241578 -7.35715,2.626202 0.11234,-1.698181 0.50204,-5.596291 0.007,-6.937787 h 7.1e-4 c 1.17958,-0.187651 2.73246,-0.277195 3.56867,-0.281667 z"
           style="fill:#945dff;fill-opacity:1;stroke:#fffef7;stroke-width:1.54959464;stroke-linecap:butt;stroke-linejoin:round;stroke-miterlimit:4;stroke-dasharray:none;stroke-opacity:1" />
      </g>
      <g
         style="stroke:#fffef7;stroke-width:1.3392241;stroke-opacity:1"
         transform="matrix(0.83453657,-0.02428605,0.02449345,0.82747061,-71.538662,230.12648)"
         id="g1040">
        <path
           style="fill:#ff5a9d;fill-opacity:1;stroke:#fffef7;stroke-width:1.60706902;stroke-linecap:butt;stroke-linejoin:miter;stroke-miterlimit:4;stroke-dasharray:none;stroke-opacity:1"
           d="m 192.51021,46.22447 c -1.18582,7.319041 -13.53357,-1.19318 -14.16157,3.545623 -0.66542,5.021196 15.18616,0.913893 14.29688,12.697978 -0.8513,11.280798 -23.1274,9.839477 -21.28244,2.780796 1.82747,-6.991772 13.05815,1.875968 14.05702,-3.025867 0.7832,-3.843443 -15.53281,-0.863403 -13.94729,-12.517128 1.5698,-11.538188 21.99931,-9.418433 21.0374,-3.481402 z"
           id="path1034"
           inkscape:connector-curvature="0"
           sodipodi:nodetypes="sssssss" />
      </g>
      <g
         style="stroke:#fffef7;stroke-width:0.98890322;stroke-opacity:1"
         transform="matrix(1.1245562,0.0033485,-0.00341385,1.1271604,-6.5637192,294.1158)"
         id="g1046">
        <path
           style="fill:#ffae46;fill-opacity:1;stroke:#fffef7;stroke-width:1.18668389;stroke-linecap:butt;stroke-linejoin:round;stroke-miterlimit:4;stroke-dasharray:none;stroke-opacity:1"
           d="m 90.696182,-28.675411 c -2.937732,3.987531 -8.719105,14.202402 -5.472345,18.7597817 1.954858,2.743991 4.724784,-0.8931437 5.827613,-3.9479847 1.37191,0.61441 2.572872,0.392815 3.813623,-0.278115 1.188191,3.506949 2.702324,6.4454397 4.847284,4.8684387 4.250233,-3.1248367 0.296523,-14.3882107 -2.18023,-18.7208317 -1.38208,-2.417688 -5.121736,-3.00809 -6.835945,-0.681289 z m 2.829057,6.284075 c 0.0609,1.541129 0.278737,3.195106 0.793846,4.465486 -1.013949,-0.522391 -1.275159,-0.218127 -2.30414,0.155443 0.551762,-1.210597 1.025284,-2.886208 1.510294,-4.620929 z"
           id="path1042"
           inkscape:connector-curvature="0"
           sodipodi:nodetypes="ssccssscccc" />
      </g>
      <path
         style="fill:#39f174;fill-opacity:1;stroke:#fffef7;stroke-width:1.336043;stroke-linecap:butt;stroke-linejoin:miter;stroke-miterlimit:4;stroke-dasharray:none;stroke-opacity:1"
         d="m 111.07168,260.61823 c -5.5919,0.18041 -6.38535,15.19065 -1.70914,21.30955 2.65701,3.47676 10.21758,3.08498 12.9498,0.0991 5.59373,-6.113 3.98684,-21.43305 -0.50572,-21.53274 -7.99847,-0.17746 1.71356,16.22691 -6.1962,16.16491 -6.03644,-0.0472 1.51669,-16.2362 -4.53874,-16.04081 z"
         id="path1048"
         inkscape:connector-curvature="0"
         sodipodi:nodetypes="csssssc" />
    </g>
    <g
       style="stroke:#fff8cd;stroke-width:1.07780969;stroke-miterlimit:4;stroke-dasharray:none;stroke-opacity:0.62745098"
       id="g3542"
       transform="matrix(1.1133691,0,0,1.1133691,-295.39164,1.8032689)">
      <path
         transform="matrix(0.74955967,-0.02181312,0.0219994,0.7432132,279.52564,197.48382)"
         style="fill:none;stroke:#fff8cd;stroke-width:1.44342852;stroke-linecap:round;stroke-linejoin:miter;stroke-miterlimit:4;stroke-dasharray:none;stroke-opacity:0.62745098"
         d="m 188.02711,43.786509 c 1.55279,0.32703 2.08705,1.141582 2.73892,2.054193"
         id="path1004"
         inkscape:connector-curvature="0" />
      <path
         transform="matrix(0.74955967,-0.02181312,0.0219994,0.7432132,279.52564,197.48382)"
         style="fill:none;stroke:#fff8cd;stroke-width:1.44342852;stroke-linecap:round;stroke-linejoin:miter;stroke-miterlimit:4;stroke-dasharray:none;stroke-opacity:0.62745098"
         d="m 186.2468,56.933343 c 2.75672,1.185423 4.31364,2.15615 4.93007,4.930063"
         id="path1006"
         inkscape:connector-curvature="0" />
      <path
         transform="translate(352.45061,30.146276)"
         style="fill:none;stroke:#fff8cd;stroke-width:1.07780969;stroke-linecap:round;stroke-linejoin:miter;stroke-miterlimit:4;stroke-dasharray:none;stroke-opacity:0.62745098"
         d="m -59.555774,196.55188 c 3.157494,-0.25359 6.496614,2.20718 7.269286,4.59908"
         id="path1012"
         inkscape:connector-curvature="0"
         sodipodi:nodetypes="cc" />
      <path
         transform="translate(349.28307,29.783449)"
         style="fill:none;stroke:#fff8cd;stroke-width:1.07780969;stroke-linecap:round;stroke-linejoin:miter;stroke-miterlimit:4;stroke-dasharray:none;stroke-opacity:0.62745098"
         d="m -43.161133,196.65261 c 1.351402,0.16723 2.13115,1.762 2.13115,3.25941"
         id="path1018"
         inkscape:connector-curvature="0" />
      <path
         transform="translate(344.76489,29.783449)"
         inkscape:connector-curvature="0"
         id="path1024"
         d="m -19.878137,195.9722 c 2.392788,-0.33701 2.236368,3.16354 2.439988,4.99614"
         style="fill:none;stroke:#fff8cd;stroke-width:1.07780969;stroke-linecap:round;stroke-linejoin:miter;stroke-miterlimit:4;stroke-dasharray:none;stroke-opacity:0.62745098" />
      <path
         transform="matrix(1.0768812,0,0,1.0755343,18.765973,-17.524732)"
         inkscape:connector-curvature="0"
         id="path1030"
         d="m 297.94739,225.90688 c 1.34899,0.56616 2.49386,2.71669 3.19672,3.94889"
         style="fill:none;stroke:#fff8cd;stroke-width:1.00148869;stroke-linecap:round;stroke-linejoin:miter;stroke-miterlimit:4;stroke-dasharray:none;stroke-opacity:0.62745098"
         sodipodi:nodetypes="cc" />
      <path
         transform="matrix(0.77774093,-0.01548598,0.01562634,0.77075464,279.69412,194.5605)"
         style="fill:none;stroke:#fff8cd;stroke-width:1.3918066;stroke-linecap:round;stroke-linejoin:miter;stroke-miterlimit:4;stroke-dasharray:none;stroke-opacity:0.62745098"
         d="m 157.48811,43.786509 c 4.11827,-0.147457 6.12306,3.76893 6.57341,6.847308"
         id="path1058"
         inkscape:connector-curvature="0"
         sodipodi:nodetypes="cc" />
      <path
         transform="matrix(0.74955967,-0.02181312,0.0219994,0.7432132,215.79034,197.12768)"
         inkscape:connector-curvature="0"
         id="path1036"
         d="m 187.20944,44.564146 c 1.55279,0.32703 2.08705,1.141582 2.73892,2.054193"
         style="fill:none;stroke:#fff8cd;stroke-width:1.44342852;stroke-linecap:round;stroke-linejoin:miter;stroke-miterlimit:4;stroke-dasharray:none;stroke-opacity:0.62745098" />
      <path
         transform="matrix(0.74955967,-0.02181312,0.0219994,0.7432132,215.79034,197.12768)"
         inkscape:connector-curvature="0"
         id="path1038"
         d="m 185.47615,56.109088 c 2.75672,1.185423 4.31364,2.15615 4.93007,4.930063"
         style="fill:none;stroke:#fff8cd;stroke-width:1.44342852;stroke-linecap:round;stroke-linejoin:miter;stroke-miterlimit:4;stroke-dasharray:none;stroke-opacity:0.62745098" />
      <path
         transform="matrix(1.010048,0.00300754,-0.00306623,1.012387,274.14919,254.60128)"
         sodipodi:nodetypes="cc"
         inkscape:connector-curvature="0"
         id="path1044"
         d="m 94.177946,-28.286908 c 1.690817,0.573971 3.502941,4.241121 3.872771,6.411091"
         style="fill:none;stroke:#fff8cd;stroke-width:1.06584942;stroke-linecap:round;stroke-linejoin:miter;stroke-miterlimit:4;stroke-dasharray:none;stroke-opacity:0.62745098" />
      <path
         style="fill:none;stroke:#fff8cd;stroke-width:1.07780969;stroke-linecap:round;stroke-linejoin:miter;stroke-miterlimit:4;stroke-dasharray:none;stroke-opacity:0.62745098"
         d="m 379.10263,226.20146 c 1.56666,-0.25955 1.48358,1.73774 1.48358,3.04521"
         id="path1050"
         inkscape:connector-curvature="0"
         sodipodi:nodetypes="cc" />
      <path
         style="fill:none;stroke:#fff8cd;stroke-width:1.07780969;stroke-linecap:round;stroke-linejoin:miter;stroke-miterlimit:4;stroke-dasharray:none;stroke-opacity:0.62745098"
         d="m 388.23826,226.20146 c 2.37365,-0.81315 2.35582,1.6017 2.81097,2.96713"
         id="path1052"
         inkscape:connector-curvature="0" />
    </g>
  </g>
</svg>
